<?xml version='1.0' encoding='UTF-8' standalone='no'?>
<svg xmlns="http://www.w3.org/2000/svg" width="418pt" xmlns:xlink="http://www.w3.org/1999/xlink" viewBox="0 0 418 314" height="314pt">
 <title>gl2ps_renderer figure</title>
 <desc>
Creator: GL2PS 1.4.2, (C) 1999-2020 C. Geuzaine
For: Octave
CreationDate: Thu Nov  9 17:20:13 2023
</desc>
 <defs/>
 <polygon points="0,0 418,0 418,314 0,314" fill="#ffffff"/>
 <g>
  <polygon shape-rendering="crispEdges" points="0,314 418,314 418,0 0,0" fill="#ffffff"/>
  <clipPath id="cp00418314">
   <polygon points="0,314 418,314 418,0 0,0"/>
  </clipPath>
  <g clip-path="url(#cp00418314)">
   <polygon shape-rendering="crispEdges" points="54.4343,279.499 378.946,279.499 378.946,23.5533 54.4343,23.5533" fill="#ffffff"/>
   <polyline stroke-opacity="0.15" points="54.4343,279.499 54.4343,23.5533" stroke="#262626" stroke-linejoin="miter" fill="none" stroke-linecap="butt" stroke-width="0.5" stroke-dasharray="16,0"/>
   <polyline stroke-opacity="0.15" points="108.52,279.499 108.52,23.5533" stroke="#262626" stroke-linejoin="miter" fill="none" stroke-linecap="butt" stroke-width="0.5" stroke-dasharray="16,0"/>
   <polyline stroke-opacity="0.15" points="162.605,279.499 162.605,23.5533" stroke="#262626" stroke-linejoin="miter" fill="none" stroke-linecap="butt" stroke-width="0.5" stroke-dasharray="16,0"/>
   <polyline stroke-opacity="0.15" points="216.69,279.499 216.69,23.5533" stroke="#262626" stroke-linejoin="miter" fill="none" stroke-linecap="butt" stroke-width="0.5" stroke-dasharray="16,0"/>
   <polyline stroke-opacity="0.15" points="270.776,279.499 270.776,23.5533" stroke="#262626" stroke-linejoin="miter" fill="none" stroke-linecap="butt" stroke-width="0.5" stroke-dasharray="16,0"/>
   <polyline stroke-opacity="0.15" points="324.861,279.499 324.861,23.5533" stroke="#262626" stroke-linejoin="miter" fill="none" stroke-linecap="butt" stroke-width="0.5" stroke-dasharray="16,0"/>
   <polyline stroke-opacity="0.15" points="378.946,279.499 378.946,23.5533" stroke="#262626" stroke-linejoin="miter" fill="none" stroke-linecap="butt" stroke-width="0.5" stroke-dasharray="16,0"/>
   <polyline points="54.4343,279.499 54.4343,276.255" stroke="#262626" stroke-linejoin="miter" fill="none" stroke-linecap="butt" stroke-width="0.5"/>
   <polyline points="108.52,279.499 108.52,276.255" stroke="#262626" stroke-linejoin="miter" fill="none" stroke-linecap="butt" stroke-width="0.5"/>
   <polyline points="162.605,279.499 162.605,276.255" stroke="#262626" stroke-linejoin="miter" fill="none" stroke-linecap="butt" stroke-width="0.5"/>
   <polyline points="216.69,279.499 216.69,276.255" stroke="#262626" stroke-linejoin="miter" fill="none" stroke-linecap="butt" stroke-width="0.5"/>
   <polyline points="270.776,279.499 270.776,276.255" stroke="#262626" stroke-linejoin="miter" fill="none" stroke-linecap="butt" stroke-width="0.5"/>
   <polyline points="324.861,279.499 324.861,276.255" stroke="#262626" stroke-linejoin="miter" fill="none" stroke-linecap="butt" stroke-width="0.5"/>
   <polyline points="378.946,279.499 378.946,276.255" stroke="#262626" stroke-linejoin="miter" fill="none" stroke-linecap="butt" stroke-width="0.5"/>
   <text xml:space="preserve" transform="translate(49.9343,294.998) rotate(-0,4.5,-8)" font-style="normal" font-size="10" font-weight="normal" font-family="FreeSans">
    <tspan y="-0" fill="rgb(38,38,38)" x="0 3 ">-6</tspan>
   </text>
   <text xml:space="preserve" transform="translate(104.02,294.998) rotate(-0,4.5,-8)" font-style="normal" font-size="10" font-weight="normal" font-family="FreeSans">
    <tspan y="-0" fill="rgb(38,38,38)" x="0 3 ">-4</tspan>
   </text>
   <text xml:space="preserve" transform="translate(158.105,294.998) rotate(-0,4.5,-8)" font-style="normal" font-size="10" font-weight="normal" font-family="FreeSans">
    <tspan y="-0" fill="rgb(38,38,38)" x="0 3 ">-2</tspan>
   </text>
   <text xml:space="preserve" transform="translate(213.69,294.998) rotate(-0,3,-8)" font-style="normal" font-size="10" font-weight="normal" font-family="FreeSans">
    <tspan y="-0" fill="rgb(38,38,38)" x="0 ">0</tspan>
   </text>
   <text xml:space="preserve" transform="translate(267.776,294.998) rotate(-0,3,-8)" font-style="normal" font-size="10" font-weight="normal" font-family="FreeSans">
    <tspan y="-0" fill="rgb(38,38,38)" x="0 ">2</tspan>
   </text>
   <text xml:space="preserve" transform="translate(321.861,294.998) rotate(-0,3,-8)" font-style="normal" font-size="10" font-weight="normal" font-family="FreeSans">
    <tspan y="-0" fill="rgb(38,38,38)" x="0 ">4</tspan>
   </text>
   <text xml:space="preserve" transform="translate(375.946,294.998) rotate(-0,3,-8)" font-style="normal" font-size="10" font-weight="normal" font-family="FreeSans">
    <tspan y="-0" fill="rgb(38,38,38)" x="0 ">6</tspan>
   </text>
   <polyline stroke-opacity="0.15" points="54.4343,279.499 378.946,279.499" stroke="#262626" stroke-linejoin="miter" fill="none" stroke-linecap="butt" stroke-width="0.5" stroke-dasharray="16,0"/>
   <polyline stroke-opacity="0.15" points="54.4343,215.513 378.946,215.513" stroke="#262626" stroke-linejoin="miter" fill="none" stroke-linecap="butt" stroke-width="0.5" stroke-dasharray="16,0"/>
   <polyline stroke-opacity="0.15" points="54.4343,151.526 378.946,151.526" stroke="#262626" stroke-linejoin="miter" fill="none" stroke-linecap="butt" stroke-width="0.5" stroke-dasharray="16,0"/>
   <polyline stroke-opacity="0.15" points="54.4343,87.5398 378.946,87.5398" stroke="#262626" stroke-linejoin="miter" fill="none" stroke-linecap="butt" stroke-width="0.5" stroke-dasharray="16,0"/>
   <polyline stroke-opacity="0.15" points="54.4343,23.5533 378.946,23.5533" stroke="#262626" stroke-linejoin="miter" fill="none" stroke-linecap="butt" stroke-width="0.5" stroke-dasharray="16,0"/>
   <polyline points="54.4343,279.499 57.6745,279.499" stroke="#262626" stroke-linejoin="miter" fill="none" stroke-linecap="butt" stroke-width="0.5"/>
   <polyline points="54.4343,215.513 57.6745,215.513" stroke="#262626" stroke-linejoin="miter" fill="none" stroke-linecap="butt" stroke-width="0.5"/>
   <polyline points="54.4343,151.526 57.6745,151.526" stroke="#262626" stroke-linejoin="miter" fill="none" stroke-linecap="butt" stroke-width="0.5"/>
   <polyline points="54.4343,87.5398 57.6745,87.5398" stroke="#262626" stroke-linejoin="miter" fill="none" stroke-linecap="butt" stroke-width="0.5"/>
   <polyline points="54.4343,23.5533 57.6745,23.5533" stroke="#262626" stroke-linejoin="miter" fill="none" stroke-linecap="butt" stroke-width="0.5"/>
   <text xml:space="preserve" transform="translate(43.4418,283.499) rotate(-0,6,-4)" font-style="normal" font-size="10" font-weight="normal" font-family="FreeSans">
    <tspan y="-0" fill="rgb(38,38,38)" x="0 ">0</tspan>
   </text>
   <text xml:space="preserve" transform="translate(34.4418,219.513) rotate(-0,15,-4)" font-style="normal" font-size="10" font-weight="normal" font-family="FreeSans">
    <tspan y="-0" fill="rgb(38,38,38)" x="0 6 9 ">0.5</tspan>
   </text>
   <text xml:space="preserve" transform="translate(43.4418,155.526) rotate(-0,6,-4)" font-style="normal" font-size="10" font-weight="normal" font-family="FreeSans">
    <tspan y="-0" fill="rgb(38,38,38)" x="0 ">1</tspan>
   </text>
   <text xml:space="preserve" transform="translate(34.4418,91.5398) rotate(-0,15,-4)" font-style="normal" font-size="10" font-weight="normal" font-family="FreeSans">
    <tspan y="-0" fill="rgb(38,38,38)" x="0 6 9 ">1.5</tspan>
   </text>
   <text xml:space="preserve" transform="translate(43.4418,27.5533) rotate(-0,6,-4)" font-style="normal" font-size="10" font-weight="normal" font-family="FreeSans">
    <tspan y="-0" fill="rgb(38,38,38)" x="0 ">2</tspan>
   </text>
   <polyline points="54.4343,279.499 378.946,279.499" stroke="#262626" stroke-linejoin="miter" fill="none" stroke-linecap="square" stroke-width="0.5" stroke-dasharray="16,0"/>
   <polyline points="54.4343,279.499 54.4343,23.5533" stroke="#262626" stroke-linejoin="miter" fill="none" stroke-linecap="square" stroke-width="0.5" stroke-dasharray="16,0"/>
   <text xml:space="preserve" transform="translate(215.19,307.998) rotate(-0,1.5,-8)" font-style="normal" font-size="11" font-weight="normal" font-family="FreeSans">
    <tspan y="-0" fill="rgb(38,38,38)" x="0 ">t</tspan>
   </text>
   <text xml:space="preserve" transform="translate(18.4418,151.526) rotate(-90,11,0)" font-style="normal" font-size="11" font-weight="normal" font-family="FreeSans">
    <tspan y="-3" fill="rgb(38,38,38)" x="0 ">μ</tspan>
    <tspan y="-1" font-size="7.7" fill="rgb(38,38,38)" x="6 ">X</tspan>
    <tspan y="-3" fill="rgb(38,38,38)" x="11 15 18 ">(t)</tspan>
   </text>
   <text xml:space="preserve" transform="translate(179.19,13.5533) rotate(-0,37.5,0)" font-style="normal" font-size="11" font-weight="bold" font-family="FreeSans">
    <tspan y="-3" fill="rgb(0,0,0)" x="0 7 14 21 27 33 40 43 53 59 66 69 ">Função média</tspan>
   </text>
   <polyline points="81.477,279.499 82.0178,279.499 82.5587,279.499 83.0995,279.499 83.6404,279.499 84.1812,279.499 84.7221,279.499 85.2629,279.499 85.8038,279.499 86.3446,279.499 86.8855,279.499 87.4263,279.499 87.9672,279.499 88.5081,279.499 89.0489,279.499 89.5898,279.499 90.1306,279.499 90.6715,279.499 91.2123,279.499 91.7532,279.499 92.294,279.499 92.8349,279.499 93.3757,279.499 93.9166,279.499 94.4574,279.499 94.9983,279.499 95.5392,279.499 96.08,279.499 96.6208,279.499 97.1617,279.499 97.7026,279.499 98.2434,279.499 98.7843,279.499 99.3251,279.499 99.866,279.499 100.407,279.499 100.948,279.499 101.489,279.499 102.029,279.499 102.57,279.499 103.111,279.499 103.652,279.499 104.193,279.499 104.734,279.499 105.275,279.499 105.815,279.499 106.356,279.499 106.897,279.499 107.438,279.499 107.979,279.499 108.52,279.499 109.06,279.499 109.601,279.499 110.142,279.499 110.683,279.499 111.224,279.499 111.765,279.499 112.306,279.499 112.846,279.499 113.387,279.499 113.928,279.499 114.469,279.499 115.01,279.499 115.551,279.499 116.092,279.499 116.632,279.499 117.173,279.499 117.714,279.499 118.255,279.499 118.796,279.499 119.337,279.499 119.878,279.499 120.418,279.499 120.959,279.499 121.5,279.499 122.041,279.499 122.582,279.499 123.123,279.499 123.664,279.499 124.204,279.499 124.745,279.499 125.286,279.499 125.827,279.499 126.368,279.499 126.909,279.499 127.45,279.499 127.99,279.499 128.531,279.499 129.072,279.499 129.613,279.499 130.154,279.499 130.695,279.499 131.235,279.499 131.776,279.499 132.317,279.499 132.858,279.499 133.399,279.499 133.94,279.499 134.481,279.499 135.021,279.499 135.562,279.499 136.103,279.499 136.644,279.499 137.185,279.499 137.726,279.499 138.267,279.499 138.807,279.499 139.348,279.499 139.889,279.499 140.43,279.499 140.971,279.499 141.512,279.499 142.053,279.499 142.593,279.499 143.134,279.499 143.675,279.499 144.216,279.499 144.757,279.499 145.298,279.499 145.839,279.499 146.379,279.499 146.92,279.499 147.461,279.499 148.002,279.499 148.543,279.499 149.084,279.499 149.624,279.499 150.165,279.499 150.706,279.499 151.247,279.499 151.788,279.499 152.329,279.499 152.87,279.499 153.41,279.499 153.951,279.499 154.492,279.499 155.033,279.499 155.574,279.499 156.115,279.499 156.656,279.499 157.196,279.499 157.737,279.499 158.278,279.499 158.819,279.499 159.36,279.499 159.901,279.499 160.442,279.499 160.982,279.499 161.523,279.499 162.064,279.499 162.605,279.499 163.146,279.499 163.687,279.499 164.228,279.499 164.768,279.499 165.309,279.499 165.85,279.499 166.391,279.499 166.932,279.499 167.473,279.499 168.014,279.499 168.554,279.499 169.095,279.499 169.636,279.499 170.177,279.499 170.718,279.499 171.259,279.499 171.799,279.499 172.34,279.499 172.881,279.499 173.422,279.499 173.963,279.499 174.504,279.499 175.045,279.499 175.585,279.499 176.126,279.499 176.667,279.499 177.208,279.499 177.749,279.499 178.29,279.499 178.831,279.499 179.371,279.499 179.912,279.499 180.453,279.499 180.994,279.499 181.535,279.499 182.076,279.499 182.617,279.499 183.157,279.499 183.698,279.499 184.239,279.499 184.78,279.499 185.321,279.499 185.862,279.499 186.403,279.499 186.943,279.499 187.484,279.499 188.025,279.499 188.566,279.499 189.107,279.499 189.648,279.499 190.189,279.499 190.729,279.499 191.27,279.499 191.811,279.499 192.352,279.499 192.893,279.499 193.434,279.499 193.974,279.499 194.515,279.499 195.056,279.499 195.597,279.499 196.138,279.499 196.679,279.499 197.22,279.499 197.76,279.499 198.301,279.499 198.842,279.499 199.383,279.499 199.924,279.499 200.465,279.499 201.006,279.499 201.546,279.499 202.087,279.499 202.628,279.499 203.169,279.499 203.71,279.499 204.251,279.499 204.792,279.499 205.332,279.499 205.873,279.499 206.414,279.499 206.955,279.499 207.496,279.499 208.037,279.499 208.578,279.499 209.118,279.499 209.659,279.499 210.2,279.499 210.741,279.499 211.282,279.499 211.823,279.499 212.364,279.499 212.904,279.499 213.445,279.499 213.986,279.499 214.527,279.499 215.068,279.499 215.609,279.499 216.149,279.499 216.69,25.8509 217.231,25.8509 217.772,25.8509 218.313,25.8509 218.854,25.8509 219.395,25.8509 219.935,25.8509 220.476,25.8509 221.017,25.8509 221.558,25.8509 222.099,25.8509 222.64,25.8509 223.181,25.8509 223.721,25.8509 224.262,25.8509 224.803,25.8509 225.344,25.8509 225.885,25.8509 226.426,25.8509 226.967,25.8509 227.507,25.8509 228.048,25.8509 228.589,25.8509 229.13,25.8509 229.671,25.8509 230.212,25.8509 230.753,25.8509 231.293,25.8509 231.834,25.8509 232.375,25.8509 232.916,25.8509 233.457,25.8509 233.998,25.8509 234.538,25.8509 235.079,25.8509 235.62,25.8509 236.161,25.8509 236.702,25.8509 237.243,25.8509 237.784,25.8509 238.324,25.8509 238.865,25.8509 239.406,25.8509 239.947,25.8509 240.488,25.8509 241.029,25.8509 241.57,25.8509 242.11,25.8509 242.651,25.8509 243.192,25.8509 243.733,24.881 244.274,24.881 244.815,24.881 245.356,24.881 245.896,24.881 246.437,24.881 246.978,24.881 247.519,24.881 248.06,24.881 248.601,24.881 249.142,24.881 249.682,24.881 250.223,24.881 250.764,24.881 251.305,24.881 251.846,24.881 252.387,24.881 252.928,24.881 253.468,24.881 254.009,24.881 254.55,24.881 255.091,24.881 255.632,24.881 256.173,24.881 256.714,24.881 257.254,24.881 257.795,24.881 258.336,24.881 258.877,24.881 259.418,24.881 259.959,24.881 260.499,24.881 261.04,24.881 261.581,24.881 262.122,24.881 262.663,24.881 263.204,24.881 263.745,24.881 264.285,24.881 264.826,24.881 265.367,24.881 265.908,24.881 266.449,24.881 266.99,24.881 267.531,24.881 268.071,24.881 268.612,24.881 269.153,24.881 269.694,24.881 270.235,24.881 270.776,279.499 271.317,279.499 271.857,279.499 272.398,279.499 272.939,279.499 273.48,279.499 274.021,279.499 274.562,279.499 275.103,279.499 275.643,279.499 276.184,279.499 276.725,279.499 277.266,279.499 277.807,279.499 278.348,279.499 278.888,279.499 279.429,279.499 279.97,279.499 280.511,279.499 281.052,279.499 281.593,279.499 282.134,279.499 282.674,279.499 283.215,279.499 283.756,279.499 284.297,279.499 284.838,279.499 285.379,279.499 285.92,279.499 286.46,279.499 287.001,279.499 287.542,279.499 288.083,279.499 288.624,279.499 289.165,279.499 289.706,279.499 290.246,279.499 290.787,279.499 291.328,279.499 291.869,279.499 292.41,279.499 292.951,279.499 293.492,279.499 294.032,279.499 294.573,279.499 295.114,279.499 295.655,279.499 296.196,279.499 296.737,279.499 297.277,279.499 297.818,279.499 298.359,279.499 298.9,279.499 299.441,279.499 299.982,279.499 300.523,279.499 301.063,279.499 301.604,279.499 302.145,279.499 302.686,279.499 303.227,279.499 303.768,279.499 304.309,279.499 304.849,279.499 305.39,279.499 305.931,279.499 306.472,279.499 307.013,279.499 307.554,279.499 308.095,279.499 308.635,279.499 309.176,279.499 309.717,279.499 310.258,279.499 310.799,279.499 311.34,279.499 311.881,279.499 312.421,279.499 312.962,279.499 313.503,279.499 314.044,279.499 314.585,279.499 315.126,279.499 315.667,279.499 316.207,279.499 316.748,279.499 317.289,279.499 317.83,279.499 318.371,279.499 318.912,279.499 319.453,279.499 319.993,279.499 320.534,279.499 321.075,279.499 321.616,279.499 322.157,279.499 322.698,279.499 323.238,279.499 323.779,279.499 324.32,279.499 324.861,279.499 325.402,279.499 325.943,279.499 326.484,279.499 327.024,279.499 327.565,279.499 328.106,279.499 328.647,279.499 329.188,279.499 329.729,279.499 330.27,279.499 330.81,279.499 331.351,279.499 331.892,279.499 332.433,279.499 332.974,279.499 333.515,279.499 334.056,279.499 334.596,279.499 335.137,279.499 335.678,279.499 336.219,279.499 336.76,279.499 337.301,279.499 337.842,279.499 338.382,279.499 338.923,279.499 339.464,279.499 340.005,279.499 340.546,279.499 341.087,279.499 341.627,279.499 342.168,279.499 342.709,279.499 343.25,279.499 343.791,279.499 344.332,279.499 344.873,279.499 345.413,279.499 345.954,279.499 346.495,279.499 347.036,279.499 347.577,279.499 348.118,279.499 348.659,279.499 349.199,279.499 349.74,279.499 350.281,279.499 350.822,279.499 351.363,279.499 351.904,279.499" stroke="#0000ff" stroke-linejoin="round" fill="none" stroke-linecap="butt" stroke-width="4"/>
  </g>
 </g>
</svg>
